<svg width="75" height="49" viewBox="0 0 75 49" fill="none" xmlns="http://www.w3.org/2000/svg">
<path d="M9.37817 3.45019C9.79226 1.44133 11.561 0 13.6121 0H68.9319C71.7081 0 73.7646 2.57956 73.1461 5.28602L63.936 45.5871C63.4867 47.5528 61.7381 48.9469 59.7217 48.9469H5.30488C2.56653 48.9469 0.518141 46.4332 1.07097 43.7513L9.37817 3.45019Z" fill="#F20C39"/>
<path d="M37.6093 11.2395V38.1857" stroke="white" stroke-width="2.44965" stroke-linecap="round" stroke-linejoin="round"/>
<path d="M43.7334 16.1389H34.5472C33.4102 16.1389 32.3198 16.5906 31.5159 17.3945C30.712 18.1985 30.2603 19.2889 30.2603 20.4258C30.2603 21.5628 30.712 22.6532 31.5159 23.4571C32.3198 24.261 33.4102 24.7127 34.5472 24.7127H40.6713C41.8083 24.7127 42.8987 25.1644 43.7026 25.9683C44.5066 26.7723 44.9582 27.8626 44.9582 28.9996C44.9582 30.1365 44.5066 31.2269 43.7026 32.0309C42.8987 32.8348 41.8083 33.2865 40.6713 33.2865H30.2603" stroke="white" stroke-width="2.44965" stroke-linecap="round" stroke-linejoin="round"/>
</svg>
