<svg width="75" height="49" viewBox="0 0 75 49" fill="none" xmlns="http://www.w3.org/2000/svg">
<path d="M10.0237 3.45019C10.4378 1.44133 12.2065 0 14.2576 0H69.5774C72.3536 0 74.4102 2.57956 73.7916 5.28602L64.5815 45.5871C64.1322 47.5528 62.3836 48.9469 60.3672 48.9469H5.95039C3.21204 48.9469 1.16365 46.4332 1.71648 43.7513L10.0237 3.45019Z" fill="#F20C39"/>
<path d="M35 33H31C30.4696 33 29.9609 32.7893 29.5858 32.4142C29.2107 32.0391 29 31.5304 29 31V17C29 16.4696 29.2107 15.9609 29.5858 15.5858C29.9609 15.2107 30.4696 15 31 15H35" stroke="white" stroke-width="3" stroke-linecap="round" stroke-linejoin="round"/>
<path d="M42 29L47 24L42 19" stroke="white" stroke-width="3" stroke-linecap="round" stroke-linejoin="round"/>
<path d="M47 24H35" stroke="white" stroke-width="3" stroke-linecap="round" stroke-linejoin="round"/>
</svg>
