<svg width="65" height="54" viewBox="0 0 65 54" fill="none" xmlns="http://www.w3.org/2000/svg">
<path d="M43.2273 51.2728V45.9092C43.2273 43.0641 42.0971 40.3356 40.0853 38.3238C38.0736 36.3121 35.3451 35.1819 32.5 35.1819H13.7273C10.8822 35.1819 8.1537 36.3121 6.14195 38.3238C4.13019 40.3356 3 43.0641 3 45.9092V51.2728" stroke="white" stroke-width="5.36364" stroke-linecap="round" stroke-linejoin="round"/>
<path d="M23.1135 24.4545C29.038 24.4545 33.8408 19.6518 33.8408 13.7273C33.8408 7.80276 29.038 3 23.1135 3C17.189 3 12.3862 7.80276 12.3862 13.7273C12.3862 19.6518 17.189 24.4545 23.1135 24.4545Z" stroke="white" stroke-width="5.36364" stroke-linecap="round" stroke-linejoin="round"/>
<path d="M53.9546 16.4089V32.4998" stroke="white" stroke-width="5.36364" stroke-linecap="round" stroke-linejoin="round"/>
<path d="M61.9996 24.4546H45.9087" stroke="white" stroke-width="5.36364" stroke-linecap="round" stroke-linejoin="round"/>
</svg>
