<svg width="75" height="49" viewBox="0 0 75 49" fill="none" xmlns="http://www.w3.org/2000/svg">
<path d="M10.024 3.45019C10.4381 1.44133 12.2069 0 14.258 0H69.5777C72.354 0 74.4105 2.57956 73.792 5.28602L64.5818 45.5871C64.1326 47.5528 62.384 48.9469 60.3676 48.9469H5.95075C3.21241 48.9469 1.16402 46.4332 1.71685 43.7513L10.024 3.45019Z" fill="#F3B62F"/>
<path d="M47.1587 35.4476V32.95C47.1587 31.6251 46.6324 30.3545 45.6956 29.4177C44.7588 28.4809 43.4882 27.9546 42.1633 27.9546H32.1726C30.8477 27.9546 29.5771 28.4809 28.6403 29.4177C27.7035 30.3545 27.1772 31.6251 27.1772 32.95V35.4476" stroke="white" stroke-width="2.49769" stroke-linecap="round" stroke-linejoin="round"/>
<path d="M37.168 22.9595C39.9268 22.9595 42.1633 20.723 42.1633 17.9641C42.1633 15.2053 39.9268 12.9688 37.168 12.9688C34.4091 12.9688 32.1726 15.2053 32.1726 17.9641C32.1726 20.723 34.4091 22.9595 37.168 22.9595Z" stroke="white" stroke-width="2.49769" stroke-linecap="round" stroke-linejoin="round"/>
</svg>
